# xmcd
#
# Track frame offsets: 
#        150
#        13047
#        25660
#        50157
#        63575
#        78400
#        90152
#        110797
#        127787
#        148225
#        162920
#        185187
#        199652
#        212097
#        224962
#        239537
#        250095
#        274912
#        287570
#
# Disc length: 4040 seconds
#
# Revision: 3
# Processed by: cddbd v1.5.2PL0 Copyright (c) Steve Scherf et al.
# Submitted via: ExactAudioCopy v1.0b3
#
DISCID=260fc613
DTITLE=古井戸 - 古井戸ベストアルバム 1971-1974 Disc 1 GNCL-1281
DYEAR=1900
DGENRE=Folk
TTITLE0=ろくでなし
TTITLE1=たまにはいい
TTITLE2=あした引っ越します
TTITLE3=何とかなれ
TTITLE4=ちどり足
TTITLE5=待ちぼうけ
TTITLE6=通り雨
TTITLE7=退屈
TTITLE8=窓の向こうは冬
TTITLE9=六月の壁に
TTITLE10=お正月だよ
TTITLE11=酒をのむの歌
TTITLE12=叙情詩
TTITLE13=ねむけざまし
TTITLE14=終わりです
TTITLE15=夕立ち
TTITLE16=ポスターカラー
TTITLE17=雨の日の街
TTITLE18=うわの空
EXTD=
EXTT0=
EXTT1=
EXTT2=
EXTT3=
EXTT4=
EXTT5=
EXTT6=
EXTT7=
EXTT8=
EXTT9=
EXTT10=
EXTT11=
EXTT12=
EXTT13=
EXTT14=
EXTT15=
EXTT16=
EXTT17=
EXTT18=
PLAYORDER=
